<?xml version="1.0" encoding="UTF-8"?>
<svg id="Camada_1" xmlns="http://www.w3.org/2000/svg" version="1.1" viewBox="0 0 183.1 301.2">
  <!-- Generator: Adobe Illustrator 29.0.0, SVG Export Plug-In . SVG Version: 2.1.0 Build 186)  -->
  <defs>
    <style>
      .st0 {
        fill: #1d1d1b;
      }
    </style>
  </defs>
  <path class="st0" d="M145.4,301.2c-4.4,0-7.5-2.7-8.6-7.3l-9.5-51.9H55.9l-9.5,51.8c-1.1,4.7-4.3,7.4-8.9,7.4H7c-1.5,0-3.6-.5-5.4-2.9-1.6-2.2-1.7-4.2-1.5-5.5L53.2,7.4c1.1-4.7,4.2-7.4,8.6-7.4h59.5c4.7,0,7.8,2.7,8.6,7.4l53.1,285.3c.3,2.9-.2,4.9-1.6,6.4-.9.9-2.5,2-5.3,2h-30.7ZM65.4,191c-.7,3.3-.2,4.2-.2,4.2.2.2.2.1.4.3,0,0,.6.5,3.1.5h45.7c2,0,2.9-.2,3.4-.3,0-.2.2-.7.2-1.4-.2-1.4-.3-2.7-.3-3.7,0,0-25.4-137.9-25.5-137.9l-.9-.3c-.2,0-.4,0-.6,0,0,0-25.2,138.4-25.2,138.4Z"/>
</svg>