<?xml version="1.0" encoding="UTF-8"?>
<svg id="Camada_1" xmlns="http://www.w3.org/2000/svg" version="1.1" viewBox="0 0 183.1 301.2">
  <!-- Generator: Adobe Illustrator 29.0.0, SVG Export Plug-In . SVG Version: 2.1.0 Build 186)  -->
  <defs>
    <style>
      .st0 {
        fill: #1d1d1b;
      }
    </style>
  </defs>
  <path class="st0" d="M11.6,301.2c-2.1,0-4.2-.3-6.3-.7-3.3-.8-5.1-3.2-5.1-6.5v-34.5c0-1.8,0-2.6,13.3-10.8,4.3-2.7,4.4-4.1,4.4-4.2V52.7c0,0,0-2-6.7-5.8-7-4-9.7-6.5-9.7-9.2V6.6c0-2.2,1.2-4,3.3-5.2C6.6.5,8.4,0,10.5,0h97.1C127.6,0,143.5,6.9,155.2,20.6c11.5,13.5,17.3,30.9,17.3,51.8s-2.5,25.1-7.4,37.6c-4.8,12.2-11.5,21.6-19.9,27.9,10.4,6.7,19.5,17.7,27,32.5,7.2,14.2,10.8,27.6,10.8,39.7,0,21.6-5.5,41.3-16.2,58.4-13.5,21.6-32.1,32.6-55.5,32.6H11.6ZM68.6,160.3c-2.7,0-3.3.5-3.3.6-.2.5-.7,2-.7,5.8v81.3c0,3.3,1.1,3.3,2.1,3.3h33.6c9,0,16.7-3.9,23.5-11.8,5.9-6.8,9.7-14.7,11.2-23.4.5-3.1.8-6.5.8-10.1,0-5.9-.8-11.5-2.5-16.7-1.6-5.2-4.6-10.7-8.8-16.3-2.6-3.6-6.5-6.6-11.5-9-5.1-2.4-9.9-3.6-14.3-3.6h-30.1ZM65.5,44.2s-.2.3-.2,1.1v73c0,2.4.8,2.7,2.4,2.7h30.2c9.8,0,16.9-3.5,21.7-10.6,2.5-3.9,4.6-9.9,6.2-17.9.5-2.5.8-5.9.8-10.1,0-7.2-1-13.4-2.9-18.6-2.5-6.8-6.5-11.9-12-15.1-2.9-1.6-6.9-2.8-11.7-3.8-4.9-.9-10-1.4-15.2-1.4h-14.4c-3.1,0-4.5.4-5,.6Z"/>
</svg>