<?xml version="1.0" encoding="UTF-8"?>
<svg id="Camada_1" xmlns="http://www.w3.org/2000/svg" version="1.1" viewBox="0 0 183.1 301.2">
  <!-- Generator: Adobe Illustrator 29.0.0, SVG Export Plug-In . SVG Version: 2.1.0 Build 186)  -->
  <defs>
    <style>
      .st0 {
        fill: #1d1d1b;
      }
    </style>
  </defs>
  <path class="st0" d="M93.2,301.2c-19.5,0-35.3-3.2-46.9-9.6-15.8-8.5-26.6-23.2-32.2-43.7-.7-2.2-1.3-4.2-1.7-6.1-1.3-6.1-2-11.9-2-17.4V43.2c0-12.3,3-22.2,8.9-29.5C26.6,4.6,37.7,0,52.3,0h82.5C143.3,0,149.4,1.5,153.1,4.7c3.8,3.2,5.7,8.2,5.7,14.8,0,11.5-.8,26.1-2.5,43.3-.5,5.9-1.5,13.9-2.8,23.7,0,6.9-5.1,7.4-6.7,7.4h-24.3c-4.1,0-6.9-1.1-8.4-3.3-1.3-1.8-1.9-4.4-1.9-7.9v-40.7h-42.6c-4.8,0-8.3.8-10.3,2.5-1.1.8-2.9,3.4-2.9,11.1v153.3c0,13.4,3.1,24.1,9.2,32,6,7.7,13.9,11.5,24.2,11.5s13.3-1.1,17.2-3.4c4.1-2.3,8.1-6,12.1-11.1,3.9-5,6.7-11.3,8.3-18.7,1.1-5,1.6-11.7,1.6-19.8s.5-5.6,7.5-5.6h26.8c4.8,0,6.9,2.2,7.8,4,.6,1.3,1.4,3.8,1.4,11.1,0,29.8-7.8,53.2-23.2,69.5-14.4,15.1-33.3,22.7-56.3,22.7Z"/>
</svg>