<?xml version="1.0" encoding="UTF-8"?>
<svg id="Camada_1" xmlns="http://www.w3.org/2000/svg" version="1.1" viewBox="0 0 183.1 301.2">
  <!-- Generator: Adobe Illustrator 29.0.0, SVG Export Plug-In . SVG Version: 2.1.0 Build 186)  -->
  <defs>
    <style>
      .st0 {
        fill: #1d1d1b;
      }
    </style>
  </defs>
  <path class="st0" d="M20.6,301.2c-2.1,0-4.2-.3-6.3-.7-3.3-.8-5.1-3.2-5.1-6.5v-34.5c0-1.8,0-2.6,13.3-10.8,4.3-2.7,4.4-4.1,4.4-4.2V52.7c0,0,0-2-6.7-5.8-7.1-4-9.7-6.5-9.7-9.2V6.6c0-2.2,1.2-4,3.3-5.2C15.6.5,17.5,0,19.5,0h97.1C122.6,0,129.7,1.9,137.8,5.8c8,3.8,14.3,8.4,18.8,13.5,3.8,4.4,7.4,10.1,10.7,16.9,4.4,9.4,6.6,18.5,6.6,27.1v164c0,22.8-4.6,40.6-13.6,52.7-10.3,14-26.7,21.1-48.5,21.1H20.6ZM72.5,248.2c.1,0,1.5.4,6.2.4h12.4c17.3,0,28.5-2.7,33.2-7.9,1.4-1.6,3.1-5.3,3.1-13.7V67.1c0-6.3-2.3-11.7-7.1-16.5-4.8-4.7-10.6-7-17.9-7h-26.4c-.9,0-1.9.6-2.6,1.2-1.1.8-1.2,1.6-1.2,2.2v199c0,1.7.3,2.2.4,2.3,0,0,0,0,0,0Z"/>
</svg>