<?xml version="1.0" encoding="UTF-8"?>
<svg id="Camada_1" xmlns="http://www.w3.org/2000/svg" version="1.1" viewBox="0 0 183.1 301.2">
  <!-- Generator: Adobe Illustrator 29.0.0, SVG Export Plug-In . SVG Version: 2.1.0 Build 186)  -->
  <defs>
    <style>
      .st0 {
        fill: #1d1d1b;
      }
    </style>
  </defs>
  <path class="st0" d="M23.2,301.7c-4.4,0-7.2-.9-8.8-2.8-1.4-1.7-2.1-4.7-2.1-9.8V8.1C12.4.1,18.3-.5,20.2-.5h129.8c5.1,0,8.1,2.8,8.1,7.6v27.4c0,4.7-3.3,7.6-8.9,7.6H58.6c-1.9,0-2,.6-2.2,1.6-.4,2.6-.5,6.7-.5,12v45.3c0,1.8.2,2.6.3,3,.5.1,1.6.3,4.1.3h61.4c3.4,0,6.1.9,8.1,2.6,2,1.8,3.1,4.2,3.1,7v22.5c0,3.7-1.2,6.3-3.7,7.8-2,1.2-4.1,1.8-6.4,1.8h-59.8c-4,0-5.9.1-6.9.2-.1.6-.2,1.8-.2,3.8v96.8c0,.5,0,1.7,4.4,1.7h101.3c8.5,0,9.2,5.8,9.2,7.6v40.7c0,.4,0,.7-.2,1.1-.7,1.7-2.6,3.8-7.3,3.8H23.2Z"/>
</svg>