<?xml version="1.0" encoding="UTF-8"?>
<svg id="Camada_1" xmlns="http://www.w3.org/2000/svg" version="1.1" viewBox="0 0 183.1 301.2">
  <!-- Generator: Adobe Illustrator 29.0.0, SVG Export Plug-In . SVG Version: 2.1.0 Build 186)  -->
  <defs>
    <style>
      .st0 {
        fill: #1d1d1b;
      }
    </style>
  </defs>
  <path class="st0" d="M23.5,301.5c-4.3,0-7.1-.6-8.9-1.9-2-1.5-3-4.1-3-8V33c0-8.9,3.2-16.7,9.4-23.3C27.2,3.1,35.6-.3,45.9-.3h114.3c4.4,0,7.1.6,8.7,1.8,1.9,1.4,2.7,4.1,2.7,8.8v24.1c0,8-6,8.6-7.8,8.6h-93.8c-4.6,0-7.9,1.5-10,4.7-2.4,3.6-3.5,7.6-3.5,12.1v85.6c.2.3.5.5.7.7h83.9c5.4,0,8.6,2.7,8.6,7.2v34.7c0,7-4.9,7.6-6.4,7.6H57c-.2,0-.4,0-.5,0v97.5c0,5.2-3,8.3-8.1,8.3h-24.9Z"/>
</svg>