<?xml version="1.0" encoding="UTF-8"?>
<svg id="Camada_1" xmlns="http://www.w3.org/2000/svg" version="1.1" viewBox="0 0 183.1 301.2">
  <!-- Generator: Adobe Illustrator 29.0.0, SVG Export Plug-In . SVG Version: 2.1.0 Build 186)  -->
  <defs>
    <style>
      .st0 {
        fill: #1d1d1b;
      }
    </style>
  </defs>
  <path class="st0" d="M72.6,302c-16.8,0-31.5-7.3-43.7-21.6-11.3-13.3-17-28-17-43.8V50.4c0-8.9,2.7-17.4,7.9-25.4,6.2-9.5,12.4-15.4,18.7-17.9,5.3-2.9,10.3-5,14.8-6.2,4.6-1.2,9.3-1.8,14-1.8h58.4c10.8,0,20.3,3.8,28.5,11.4,8.1,7.6,12.3,15.8,12.3,24.3v30.4c0,8-5.8,8.6-7.5,8.6h-28.8c-5.2,0-8.4-3.2-8.4-8.6v-19.5c0-1.1-.2-2.1-2.6-2.8-2.9-.8-7.4-1.2-13.1-1.2h-31.5c-6.8,0-11.7,3.3-14.9,10.1-1,2.3-2,6.2-3.1,11.3v165.4c0,9,2.1,15.2,6.1,18.6,2.9,2.4,9.7,5.2,25.9,5.2s19.2-2.7,27.8-8c8.3-5.1,12.3-10.6,12.3-16.9v-47.3c0-1.3-.3-1.6-.3-1.6h0s-.2,0-.5,0h-39.6c-4.8,0-7.8-2.7-7.8-6.9v-28.8c0-4.1,2.7-6.6,7-6.6h71.4c3,0,5.7,1,8.2,3,2.7,2.1,4,5.3,4,9.5v140.2c0,4.2-.5,7.1-2.9,8.1-1.2.5-2.7.8-4.9.8h-19.1c-2.5,0-4.1,0-12.9-22.4-1.4-3.8-2.6-5.7-3.5-6.7-2.7,4-5.9,8.3-9.6,12.7-4.5,5.4-9.2,9.6-13.9,12.4-3.5,2-8.4,3.7-15.1,5.5-6.6,1.7-12.2,2.6-16.7,2.6Z"/>
</svg>