<?xml version="1.0" encoding="UTF-8"?>
<svg id="Camada_1" xmlns="http://www.w3.org/2000/svg" version="1.1" viewBox="0 0 183.1 301.2">
  <!-- Generator: Adobe Illustrator 29.0.0, SVG Export Plug-In . SVG Version: 2.1.0 Build 186)  -->
  <defs>
    <style>
      .st0 {
        fill: #1d1d1b;
      }
    </style>
  </defs>
  <path class="st0" d="M132.4,301.7c-3.7,0-6.1-2.3-6.1-5.9v-132.3c0-.4,0-.6,0-.7,0,0-.2,0-.4,0H57.9s0,0,0,0c0,0-.1.2-.1.7v129.3c0,6.7-4.5,7.3-5.9,7.3H18.7c-.5,0-1-.1-1.4-.3-2.8-1.3-3.1-4.6-3.1-6.9V6.1C14.2,1.2,17.3-.5,20.3-.5h30.4c4.3,0,7,2.5,7,6.6v104.2h68.5V5.4c0-3.6,2.4-5.9,6.1-5.9h30.7c3.6,0,5.9,2.3,5.9,5.9v290.3c0,3.6-2.3,5.9-5.9,5.9h-30.7Z"/>
</svg>