<?xml version="1.0" encoding="UTF-8"?>
<svg id="Camada_1" xmlns="http://www.w3.org/2000/svg" version="1.1" viewBox="0 0 183.1 301.2">
  <!-- Generator: Adobe Illustrator 29.0.0, SVG Export Plug-In . SVG Version: 2.1.0 Build 186)  -->
  <defs>
    <style>
      .st0 {
        fill: #1d1d1b;
      }
    </style>
  </defs>
  <path class="st0" d="M36.8,300.7c-3.1,0-6.4-1.9-6.4-7.2v-36.7c0-2.6,1.5-4.6,4-5.4l36.8-8.8c0-.2.2-.4.4-.8V56.3c0-1.5,0-3-.1-4.6,0-.8-.7-1.7-1.8-2.7-2.8-2.5-5.7-5-8.6-7.7-3.5-3.2-5.2-6.3-5.2-9.4V11.4c0-2.3.6-4.5,1.9-6.7,1.1-1.9,3.4-4.2,8.1-4.2h54.5c5.6,0,8.9,3.4,8.9,9.2v23.8c0,2.8-1.9,5.5-5.9,8.6-7.1,5.2-8.7,6.7-9,7.1h0s-.6,1.3-.6,7.1v188.1l33.5,5.8c3.4.1,5.6,2.2,5.6,5.3v39.7c0,3.4-2.3,5.6-5.9,5.6H36.8Z"/>
</svg>