<?xml version="1.0" encoding="UTF-8"?>
<svg id="Camada_1" xmlns="http://www.w3.org/2000/svg" version="1.1" viewBox="0 0 183.1 301.2">
  <!-- Generator: Adobe Illustrator 29.0.0, SVG Export Plug-In . SVG Version: 2.1.0 Build 186)  -->
  <defs>
    <style>
      .st0 {
        fill: #1d1d1b;
      }
    </style>
  </defs>
  <path class="st0" d="M62.1,302c-11,0-21.2-4.9-30.3-14.5-12.3-13.1-18.5-32.1-18.5-56.5v-31.4c0-5.3,3.5-7.2,6.7-7.2h29.9c4.3,0,6.9,2.5,6.9,6.6v13.9c0,5,.2,9.8.5,14.3.4,4.4,1.1,8.2,2.3,11.5,3.7,10.9,8.9,10.9,10.6,10.9h49c2.9,0,3.9-1.1,4.4-2.1,1.1-2.1,1.6-5.4,1.6-9.8,0,0,0-195.7,0-195.8h-55c-3.5,0-4.8-1.8-5.2-2.9-.4-1-.6-2.4-.6-4.1V6.1c0-4.3,2.7-6.9,7-6.9h91.9c3.1,0,6.4,1.8,6.4,6.9v227.8c0,17.9-4.5,33.8-13.5,47.3-9.2,13.9-20.3,20.9-32.8,20.9h-61.4Z"/>
</svg>