<?xml version="1.0" encoding="UTF-8"?>
<svg id="Camada_1" xmlns="http://www.w3.org/2000/svg" version="1.1" viewBox="0 0 183.1 301.2">
  <!-- Generator: Adobe Illustrator 29.0.0, SVG Export Plug-In . SVG Version: 2.1.0 Build 186)  -->
  <defs>
    <style>
      .st0 {
        fill: #1d1d1b;
      }
    </style>
  </defs>
  <path class="st0" d="M139.4,302c-3.8,0-5.9-.3-7.2-1.1-.4-.2-.7-.6-1-.9-.9-1.3-1.5-2.4-1.9-3.5-8.6-16.4-12.8-24.4-13.5-26-7.7-15.4-15.5-30.7-23.2-45.9-12.4-24.4-20.1-39.4-22.1-43.5-1.6,2-4.4,5.8-8.4,11.3-4.4,6.1-7.9,10.8-10.5,13.9-.3.9-.7,2.5-.7,5.4v81.7c0,5.3-3.5,7.2-6.7,7.2H14.4c-3.2,0-6.7-1.9-6.7-7.2V6.7C7.7-.3,12.2-.8,13.5-.8h31.5c5.1,0,7,3.1,7,5.9v116.1c0,1.6,0,2.9,0,4,3.9-5.4,10.9-15.7,20.8-30.7,9.5-14.4,20.7-31.7,33.2-51.4,12.5-19.7,20.4-32,23.5-36.9,1.9-3.5,5.4-5.4,9.8-5.4h29.9c3.3,0,5.6,2.1,5.6,5.3s-.6,3.4-1.7,5.6l-72.6,116.9c-1.2,1.9-1.2,2.7-1.2,2.8s0,.4.4,1.3c.5,1,.8,1.9,1.1,2.7l36.7,77.5c7.7,16.4,13.1,28.1,16.6,35.8,11.7,24.9,18.7,40.1,20.2,43.7.7,1.3,1,2.7,1,4.1,0,3.4-2.4,5.6-6.1,5.6h-29.9Z"/>
</svg>