<?xml version="1.0" encoding="UTF-8"?>
<svg id="Camada_1" xmlns="http://www.w3.org/2000/svg" version="1.1" viewBox="0 0 183.1 301.2">
  <!-- Generator: Adobe Illustrator 29.0.0, SVG Export Plug-In . SVG Version: 2.1.0 Build 186)  -->
  <defs>
    <style>
      .st0 {
        fill: #1d1d1b;
      }
    </style>
  </defs>
  <path class="st0" d="M14.4,301c-3.2,0-6.7-1.9-6.7-7.2V6.8C7.7,1.9,10.7.2,13.5.2h34.9c2.8,0,5.9,1.7,5.9,6.6v238.4c0,2,.3,2.9.4,3.3h74.1c0,0,0-.2,0-.4v-39c0-3.9,2.6-6.3,6.7-6.3h30.7c8.3,0,9.2,4.4,9.2,6.3v66.1c0,7.2-1.5,12.9-4.4,17.2-3.9,5.7-10,8.6-18.1,8.6H14.4Z"/>
</svg>