<?xml version="1.0" encoding="UTF-8"?>
<svg id="Camada_1" xmlns="http://www.w3.org/2000/svg" version="1.1" viewBox="0 0 183.1 301.2">
  <!-- Generator: Adobe Illustrator 29.0.0, SVG Export Plug-In . SVG Version: 2.1.0 Build 186)  -->
  <defs>
    <style>
      .st0 {
        fill: #1d1d1b;
      }
    </style>
  </defs>
  <path class="st0" d="M137.4,302.5c-1.1,0-2.1-.2-3.1-.5-3-1.1-3-4.7-3-6.1V112.1l-35,88c0,.2-.1.3-.2.5-1.2,2-2.8,4.1-5.2,4.1s-4.3-.7-6.1-4.3c-3-5.1-9.3-21.4-19.2-49.5-6.1-17.3-10.6-30.1-13.6-38.4v181.8c0,3.2-.2,4.2-.9,5.1-.6.7-1.5,1.1-2.5,1.1H13.4c-.9,0-5.3-.3-5.3-6.2V5.9c0-6.5,3.7-7.3,5.3-7.3h20.5c.1,0,.5,0,.8,0,3.5,0,6,1.6,6.9,4.4l48.9,124.8c.2.4.4.8.5,1,.2-.3.4-.7.6-1.2L141.7,4.9C143.6.6,146.9,0,148.7,0h21c2.5,0,5.3,1.6,5.3,5.9v290c0,6.1-4.1,6.6-5.3,6.6h-32.4Z"/>
</svg>