<?xml version="1.0" encoding="UTF-8"?>
<svg id="Camada_1" xmlns="http://www.w3.org/2000/svg" version="1.1" viewBox="0 0 183.1 301.2">
  <!-- Generator: Adobe Illustrator 29.0.0, SVG Export Plug-In . SVG Version: 2.1.0 Build 186)  -->
  <defs>
    <style>
      .st0 {
        fill: #1d1d1b;
      }
    </style>
  </defs>
  <path class="st0" d="M140.3,301.5c-2.7,0-4.8-1.2-5.8-3.3-.1-.2-.2-.4-.2-.7-.4-1.7-.6-3.3-.8-4.8L53.4,115.7v177.9c0,6-4.2,6.3-5.1,6.3H12.4c-2.7,0-5.6-1.6-5.6-6.3V5.9C6.8,1.3,9.7-.3,12.4-.3h25.7c6.5,0,7,3.8,7,4.9s0,1.3.1,1.5c.3.2.5.5.7.9,5.9,11.2,15,28.7,27.1,52.3.7,1.5,9.3,18.6,27.1,53.9.5,1.1,11,21.7,31.5,62V5.3c0-5.3,4-5.6,4.8-5.6h34.3c3.4,0,5.6,2.2,5.6,5.6v289.3c0,6-3,6.9-4.8,6.9h-31.2Z"/>
</svg>