<?xml version="1.0" encoding="UTF-8"?>
<svg id="Camada_1" xmlns="http://www.w3.org/2000/svg" version="1.1" viewBox="0 0 183.1 301.2">
  <!-- Generator: Adobe Illustrator 29.0.0, SVG Export Plug-In . SVG Version: 2.1.0 Build 186)  -->
  <defs>
    <style>
      .st0 {
        fill: #1d1d1b;
      }
    </style>
  </defs>
  <path class="st0" d="M91,301.3c-26.4,0-46.6-9.7-59.9-28.8-14.3-20.5-21.5-52.9-21.5-96.5s.6-23.9,1.7-37.6c3.9-49.9,14.2-87,30.7-110.2C55.2,9.4,71.7-.2,91-.2s36,9.3,49.3,27.7c16.8,23.2,27.4,59.8,31.5,108.6,1.1,14.3,1.7,27.8,1.7,39.9,0,43.2-7.3,75.4-21.8,95.9-13.8,19.5-34.3,29.4-60.7,29.4ZM91.3,42.8c-6.3,0-11.6,3.4-16.2,10.5-3.4,5.1-7.1,13.7-11,25.8-3.1,9.1-5.7,20.6-7.8,34.3-2.1,13.7-3.2,28.2-3.2,43.2s.6,34.5,1.8,45.3c1.2,10.7,4,21.4,8.5,31.9,2.4,5.5,5.2,9.6,8.3,12.1,4.2,3.5,10.5,5.2,18.7,5.2s14.3-2.7,20.2-8.4c4.2-3.9,8-9.5,11.6-16.7,3-6,5-15.4,6.1-27.8,1.1-12.6,1.7-26.7,1.7-41.8s-1.1-29.3-3.1-42.5c-2.1-13.3-4.9-25.2-8.5-35.4-3.5-10.2-7.4-18.4-11.7-24.6-5.1-7.5-10.3-11.2-15.4-11.2Z"/>
</svg>