<?xml version="1.0" encoding="UTF-8"?>
<svg id="Camada_1" xmlns="http://www.w3.org/2000/svg" version="1.1" viewBox="0 0 183.1 301.2">
  <!-- Generator: Adobe Illustrator 29.0.0, SVG Export Plug-In . SVG Version: 2.1.0 Build 186)  -->
  <defs>
    <style>
      .st0 {
        fill: #1d1d1b;
      }
    </style>
  </defs>
  <path class="st0" d="M28.8,302c-.9,0-5.3-.3-5.3-6.3l-.8-253c0-1.1-.1-1.7-.2-1.9-.5-.1-2.1-.4-6.1-.4s-5.9-2.8-5.9-3.9V5.4C10.4.8,13.6-.8,16.3-.8h74.2c21.5,0,40.4,8.7,56,25.8,17.4,18.9,26.2,44.1,26.2,74.9s-11.2,70.6-33.3,86.5c-14,10-33.6,15.1-58.3,15.1h-12.5c-.2,0-.4,0-.5,0,0,.7-.2,2.2-.2,5.3v89c0,4.6-2.9,6.3-5.6,6.3H28.8ZM70,155.4c.6,0,1.5.2,3,.2h10.5c20.3,0,33.6-5.9,40.8-18.1,4.7-7.9,7-20.4,7-37v-10.9c0-15.1-5.5-26.7-16.8-35.5-9.1-7-19.6-10.6-31.1-10.6h-13.4c0,.1,0,112,0,112Z"/>
</svg>