<?xml version="1.0" encoding="UTF-8"?>
<svg id="Camada_1" xmlns="http://www.w3.org/2000/svg" version="1.1" viewBox="0 0 183.1 301.2">
  <!-- Generator: Adobe Illustrator 29.0.0, SVG Export Plug-In . SVG Version: 2.1.0 Build 186)  -->
  <defs>
    <style>
      .st0 {
        fill: #1d1d1b;
      }
    </style>
  </defs>
  <path class="st0" d="M70.5,301.2c-16.3,0-30.2-7.8-41.3-23.1-11.9-16.5-18-38.9-18-66.5V67.8c0-22,7.4-39,22-50.5C47.7,5.8,67.3,0,91.6,0s34.2,4.5,49.8,13.3c20.3,11.5,30.6,27.5,30.6,47.5v114.1c0,15.1-2.7,28.1-8.1,38.6-5.9,11-11.6,21.8-17.1,32.4.3,2.3,2.5,8.9,12.1,27.2,5,9.5,8,15.4,9.2,17.6.8,1.9,1.1,3.4,1.1,4.9,0,4.1-2.9,5.6-5.3,5.6h-93.3ZM92.7,43.6c-13.4,0-23.4,3.3-29.8,10-4.3,4.5-6.4,9.2-6.4,14.2v145.2c0,9.9,1.2,17.5,3.6,22.6,4.8,9.9,14,14.8,27.9,14.8h15.8c-.2-.6-.4-1-.5-1.4-7.3-12.8-13.1-23.1-17.5-31-8.3-14.7-13.6-24.6-15.9-29.3-1.5-3.5-1.7-4.7-1.7-5.5,0-2.3,1.6-4.9,6.1-4.9h26c3,0,4.8,1.3,5.7,2.4,0,0,20.5,30.8,20.5,30.8V71.1c0-6.2-2-11.7-6.3-16.7-6.1-7.3-15.1-10.8-27.7-10.8Z"/>
</svg>