<?xml version="1.0" encoding="UTF-8"?>
<svg id="Camada_1" xmlns="http://www.w3.org/2000/svg" version="1.1" viewBox="0 0 183.1 301.2">
  <!-- Generator: Adobe Illustrator 29.0.0, SVG Export Plug-In . SVG Version: 2.1.0 Build 186)  -->
  <defs>
    <style>
      .st0 {
        fill: #1d1d1b;
      }
    </style>
  </defs>
  <path class="st0" d="M133.6,301.7c-2,0-4.8-.8-6.9-4.5-1.1-2.1-7.7-14.8-20-38.8-9.9-18.9-19.4-37.3-28.4-54.8-9.3-18.2-15.1-29.5-17.3-34-.9-2-1.4-4.3-1.4-6.9v-32.4c0-3.9.3-5.2.7-6.1,1.3-2.5,4.6-2.5,5.7-2.5h5.5c11.4,0,20.2-.8,25.9-2.5,11.9-3.3,13.3-9.2,13.3-13.4v-56.9c0-3.8-1.5-4.3-2.1-4.5-2.5-.8-6.4-1.2-11.4-1.2h-39s-.3,0-1.1.5c-.4.3-.8.5-1,.7v252.4c0,2.5-1.7,4.9-5.6,4.9H17.4c-2.6,0-5.6-1.6-5.6-5.9V12.1C11.8,1.1,17.6-.5,21-.5h116.2c9.1,0,15.4,2.7,18.7,8.1,2.5,4,3.8,10.2,3.8,18.7v73.8c0,15.5-8.5,29.6-25.3,42l-24.9,17.9h0s-.4.6-1.1,2.3c-.3.9-.4,1.4-.4,1.6,8.8,18.8,18.5,39.3,29,61,15.6,32.4,26.1,53.6,31.2,63.1,2.6,5.6,3.1,7.5,3.1,8.6,0,2.3-1.5,4.9-5.9,4.9h-31.8Z"/>
</svg>