<?xml version="1.0" encoding="UTF-8"?>
<svg id="Camada_1" xmlns="http://www.w3.org/2000/svg" version="1.1" viewBox="0 0 183.1 301.2">
  <!-- Generator: Adobe Illustrator 29.0.0, SVG Export Plug-In . SVG Version: 2.1.0 Build 186)  -->
  <defs>
    <style>
      .st0 {
        fill: #1d1d1b;
      }
    </style>
  </defs>
  <path class="st0" d="M91.3,300.9c-20.5,0-38.8-6-54.2-17.9-18-14-27.2-33.1-27.2-56.9v-8.3c0-.2,0-.4,0-.7.5-2.1,2.4-4.6,8.6-4.6h27.1c4.3,0,7,2.7,7,6.9s.4,8.4,1.2,12c.7,3.2,2.6,6.4,5.7,9.5,3.2,3.2,7.4,5.7,12.6,7.5,5.4,1.9,12.4,2.8,20.8,2.8,14.4,0,24.5-3.2,30-9.5,3.6-4.1,5.4-9.7,5.4-16.7,0-11.2-9.4-24.6-28-39.8-5.3-4.4-15.6-12.1-30.6-23.1-15.4-11.2-28.3-25.8-38.2-43.3-8-14.1-12-27.6-12-40.1,0-20.3,4-36.8,11.8-48.9C43.9,10.3,66.3.3,97.9.3s38.1,6.6,51.6,19.7c13.5,13.1,20.4,28.5,20.4,45.7v8.9c0,4.1-2.7,5.6-5,5.6h-29.9c-3.4,0-5.6-2.2-5.6-5.6s-.5-7-1.6-11c-1-3.9-2.8-7.4-5.3-10.5-2.4-3-6-5.6-10.5-7.6-4.5-2-9-3-13.4-3-8.8,0-16.8,2.7-23.8,8-6.9,5.2-10.2,11.6-10.2,19.5s2.9,16.6,8.5,23.7c4.4,5.7,12.2,12.8,23,21,18,13.6,28.7,21.9,31.9,24.6,14.6,12.5,25.4,24.6,32.2,35.8,8.5,14.3,12.9,30.5,12.9,48.2s-7.8,41.6-23.2,55.9c-15.4,14.3-35.2,21.5-58.8,21.5Z"/>
</svg>