<?xml version="1.0" encoding="UTF-8"?>
<svg id="Camada_1" xmlns="http://www.w3.org/2000/svg" version="1.1" viewBox="0 0 183.1 301.2">
  <!-- Generator: Adobe Illustrator 29.0.0, SVG Export Plug-In . SVG Version: 2.1.0 Build 186)  -->
  <defs>
    <style>
      .st0 {
        fill: #1d1d1b;
      }
    </style>
  </defs>
  <path class="st0" d="M72.7,300.8c-3.2,0-5.3-2.1-5.3-5.3V54.9c0-1.6-.4-2-.4-2h0s-.1,0-.4,0H15.7c-.8,0-5-.3-5-6.2V6.6c0-1.4.7-2.8,2.1-4.5l.6-.7c.6-.7,1.5-1.1,2.4-1.1h151.1c2.7,0,5.6,1.6,5.6,6.2v41c0,3.9-2.6,5.3-4.8,5.3,0,0-55.2,0-55.3,0v241.7c0,4.6-3.2,6.3-6.2,6.3h-33.5Z"/>
</svg>