<?xml version="1.0" encoding="UTF-8"?>
<svg id="Camada_1" xmlns="http://www.w3.org/2000/svg" version="1.1" viewBox="0 0 183.1 301.2">
  <!-- Generator: Adobe Illustrator 29.0.0, SVG Export Plug-In . SVG Version: 2.1.0 Build 186)  -->
  <defs>
    <style>
      .st0 {
        fill: #1d1d1b;
      }
    </style>
  </defs>
  <path class="st0" d="M70.9,301.2c-15.9,0-29.6-7.2-40.8-21.5-11-14-16.5-29.9-16.5-47.2V6.3C13.6,2.4,16.1,0,20,0h31.8C55.6,0,58,2.2,58,5.6v214.3c0,7.3,1.8,13.2,5.2,17.8,4.8,6.3,12.2,9.3,22.7,9.3s21.3-5.4,28.7-16.5c7-10.5,10.6-23.3,10.6-38.1V5.3c0-.2,0-.4,0-.7C125.9,1.7,128.1,0,131,0h33.5c.8,0,5,.3,5,6.3v286.4c0,5.6-4.2,5.9-5,5.9h-31.6c-3.6,0-5.9-2.3-5.9-5.9v-15.5c0-1.7-.2-2.7-.4-3.2-6.6,6.8-14.5,12.9-23.3,18.3-9.9,6-20.8,9.1-32.4,9.1Z"/>
</svg>