<?xml version="1.0" encoding="UTF-8"?>
<svg id="Camada_1" xmlns="http://www.w3.org/2000/svg" version="1.1" viewBox="0 0 183.1 301.2">
  <!-- Generator: Adobe Illustrator 29.0.0, SVG Export Plug-In . SVG Version: 2.1.0 Build 186)  -->
  <defs>
    <style>
      .st0 {
        fill: #1d1d1b;
      }
    </style>
  </defs>
  <path class="st0" d="M64.6,301.7c-4.6,0-6.2-.5-7.2-1-3.8-1.8-6.1-6.3-7.2-13.8-2.4-14.7-7-41.7-13.8-80.2-8.5-47.7-15-85.2-19.4-111.3C9.3,50,4.6,21.8,3.1,11.4c-.2-1.2-.3-2.7-.3-4.7C2.8,2.3,5.8-.5,10.6-.5h26c4.9,0,8.1,3,8.9,8.2,1.8,9.5,6.3,35.5,13.8,79.5,3.5,20.5,9.1,53.5,16.9,99.1,2.8,16.3,5.5,32.5,8.3,48.5.3,1.4.9,3.1,1.6,3.1,0,0,.7-.8,1.4-3.8.9-4,5.1-24.1,13.3-63.4,6.8-32.9,13.7-66.4,20.8-100.5,7.1-34.6,11.7-55.9,13.9-65.2,1.3-5.1,5.1-5.6,6.6-5.6h32.4c2.4,0,3.8,1,4.5,1.9,1.3,1.5,1.6,3.7,1,6.6-1.6,7.7-7.9,36.4-19.6,90.4-10.2,46.9-18.1,83.5-23.5,108.9-8.4,39.5-14.1,66.4-17.4,82.4-1.6,7.7-6.6,12-14.1,12h-40.7Z"/>
</svg>