<?xml version="1.0" encoding="UTF-8"?>
<svg id="Camada_1" xmlns="http://www.w3.org/2000/svg" version="1.1" viewBox="0 0 183.1 301.2">
  <!-- Generator: Adobe Illustrator 29.0.0, SVG Export Plug-In . SVG Version: 2.1.0 Build 186)  -->
  <defs>
    <style>
      .st0 {
        fill: #1d1d1b;
      }
    </style>
  </defs>
  <path class="st0" d="M131.6,302.2c-2.7,0-7.4-1.1-9.1-8.1-.9-3.8-6.8-23.8-17.4-59.5-5.3-18.2-9.2-31.9-12-41.9-3.9,11.8-9.5,29.9-16.6,53.8-2.4,8.1-7.3,24.6-14.7,49.3-1.2,3.3-3.8,5.1-7.1,5.1h-22.7c-1.6,0-6.7-.5-6.7-7.6L7.3,6.8c-.3-2.5.2-4.5,1.5-5.9C9.6,0,11-1,13.4-1h29.1c.3,0,.6,0,.9.1.8.2,1.7.5,2.6.9,1.5.6,3.2,2,3.2,5.5l16.8,181.1,5.3-22c4.8-18.7,9.8-35.9,15-51.2.7-1.6,2.4-4,6.8-4s7.2,2.3,7.7,4.2c2.8,8.3,5.9,19.7,9.2,33.5,4.5,18.5,7.8,31.7,9.8,39.6L134,6c0-5.1,3.3-7,6.4-7h29.6c2.7,0,5.9,1.6,5.9,6.3l-18.5,289.8c-.4,6.4-4.2,7.1-5.9,7.1h-19.9Z"/>
</svg>