<?xml version="1.0" encoding="UTF-8"?>
<svg id="Camada_1" xmlns="http://www.w3.org/2000/svg" version="1.1" viewBox="0 0 183.1 301.2">
  <!-- Generator: Adobe Illustrator 29.0.0, SVG Export Plug-In . SVG Version: 2.1.0 Build 186)  -->
  <defs>
    <style>
      .st0 {
        fill: #1d1d1b;
      }
    </style>
  </defs>
  <path class="st0" d="M139.9,300.9c-2.7,0-6.4-1.2-9.2-6.6l-39.2-89.2-38.9,89c-2.8,5.6-6.7,6.8-9.5,6.8H10.3c-2.4,0-4.3-1.3-5.1-3.5-.7-1.8-.4-3.8.7-5.8l61.6-140.5L5.5,9.7c-.9-2.4-1-4.3-.3-5.9C6,1.6,7.9.3,10.3.3h32.6c2.8,0,6.7,1.2,9.5,7l39,89.4L130.6,7.4c2.8-5.9,6.7-7.1,9.5-7.1h32.7c2.5,0,4.4,1.4,5.2,3.7.6,1.8.5,3.7-.3,5.6l-62.3,141.4,62,140.7c1,1.8,1.3,3.8.6,5.6-.8,2.2-2.7,3.5-5.1,3.5h-32.9Z"/>
</svg>