<?xml version="1.0" encoding="UTF-8"?>
<svg id="Camada_1" xmlns="http://www.w3.org/2000/svg" version="1.1" viewBox="0 0 183.1 301.2">
  <!-- Generator: Adobe Illustrator 29.0.0, SVG Export Plug-In . SVG Version: 2.1.0 Build 186)  -->
  <defs>
    <style>
      .st0 {
        fill: #1d1d1b;
      }
    </style>
  </defs>
  <path class="st0" d="M75.1,301.2c-1.6,0-7-.6-7-7.9v-90.3c0-.7-.8-4.3-9.7-22.2-3.5-7-7-14.1-10.5-21.1,0-.2-.1-.3-.2-.5-5.3-19.6-10.8-40-16.3-60.9-2-7.2-6.9-24.9-14.7-52.9C12,28,8.5,15.8,6.3,9.1c-.8-3.2-.6-5.4.8-7C7.9,1.1,9.3,0,12,0h29.6C45.8,0,48.7,1.9,49.9,5.4l31,110.2c2.9,10.6,5.9,21.2,8.9,31.8.8,2.5,1.8,4.1,2.8,4.1,0,0,1-.5,2.3-4,.6-1.6,2.7-8.4,9.3-31.2l31-107.5c1-3.7,2.3-5.7,4.1-6.4,1.2-.5,2.7-.7,4.4-.7h27.4c3.7,0,6.2,2.5,6.2,6.3s-.3,2.8-.8,4.1c-3.6,12.1-7.2,24.3-10.7,36.5-10.8,36.4-16.5,55.7-17.4,59.2-6.9,24.2-11.6,41-14.4,51.3,0,.2-.1.4-.2.6-3.9,7.5-7.5,14.5-10.8,20.9-8.7,16.8-9.6,21.3-9.6,22.5v90.4c0,5-2.9,7.9-7.8,7.9h-30.4Z"/>
</svg>