<?xml version="1.0" encoding="UTF-8"?>
<svg id="Camada_1" xmlns="http://www.w3.org/2000/svg" version="1.1" viewBox="0 0 183.1 301.2">
  <!-- Generator: Adobe Illustrator 29.0.0, SVG Export Plug-In . SVG Version: 2.1.0 Build 186)  -->
  <defs>
    <style>
      .st0 {
        fill: #1d1d1b;
      }
    </style>
  </defs>
  <path class="st0" d="M16.3,300.8c-3.9,0-6.4-2.3-6.4-5.9v-42.4c0-1.2,0-2.3.2-3.3.1-1.3.6-2.6,1.4-3.9,5.6-10.7,16.6-31.5,32.5-61.4,12-22.3,27.9-51.9,47.6-88.7,16.5-30.8,25.6-47.5,26.9-49.8.1-.2.2-.4.3-.6-.2,0-.5,0-.9,0H18.8c-4.8,0-7.8-2.8-7.8-7.2V8.2C11,.9,15.9.3,17.4.3h146.1c5.4,0,8.6,3.5,8.6,9.2v32.4c0,1.1-.1,2.2-.4,3.1-.2.8-.4,1.5-.7,2l-7.5,16.3c-3.8,7.5-10,18.5-18.4,33-.7,1.1-8.8,16.1-24.3,44.6-12.2,22.4-25,46.3-38.2,71-15.7,29.5-18.9,36.6-19.3,38.1,0,.4,0,.6,0,.8h102.8c4.3,0,7,2.4,7,6.3v36.7c0,4.3-2.7,6.9-7,6.9H16.3Z"/>
</svg>