<?xml version="1.0" encoding="UTF-8"?>
<svg id="Camada_1" xmlns="http://www.w3.org/2000/svg" version="1.1" viewBox="0 0 2879.1 891.1">
  <!-- Generator: Adobe Illustrator 29.0.0, SVG Export Plug-In . SVG Version: 2.1.0 Build 186)  -->
  <defs>
    <style>
      .st0 {
        stroke: #727271;
        stroke-width: 2.7px;
      }

      .st0, .st1 {
        stroke-miterlimit: 10;
      }

      .st0, .st2 {
        fill: #1d1d1b;
      }

      .st1 {
        stroke: #fff;
        stroke-width: 3.5px;
      }

      .st1, .st3 {
        fill: none;
      }

      .st4 {
        fill: #2d2e83;
      }

      .st3 {
        stroke: #1d1d1b;
        stroke-width: .2px;
      }

      .st5 {
        fill: #fee010;
      }

      .st6 {
        fill: #008d36;
      }

      .st7 {
        fill: #003869;
      }

      .st8 {
        fill: #fff;
      }

      .st9 {
        fill: #e9e9e9;
      }

      .st10 {
        fill: #00a042;
      }

      .st11 {
        fill: #004f9f;
      }
    </style>
  </defs>
  <rect class="st9" x="15.7" y="13.3" width="2850.1" height="864.5" rx="25.1" ry="25.1"/>
  <path class="st1" d="M2859.3,744.4c-4.2-3.9-8.2-8-12.3-12.1-7.6-7.7-15.3-15.5-24.3-22.2,9.7-4.7,21.1-7.6,35.4-7.6v-10.6c-19,0-33.5,4.6-45.6,11.5-12.1-6.9-26.6-11.5-45.6-11.5-40.4,0-60.6,20.5-80.1,40.3-8.5,8.6-16.8,17-26.6,23.7-9.8-6.6-18.1-15-26.6-23.7-19.5-19.8-39.7-40.3-80.1-40.3s-33.5,4.6-45.6,11.5c-12.1-6.9-26.6-11.5-45.6-11.5-40.4,0-60.6,20.5-80.1,40.3-8.5,8.6-16.8,17-26.6,23.7-9.8-6.6-18.2-15-26.6-23.7-19.5-19.8-39.7-40.3-80.1-40.3s-33.5,4.6-45.6,11.4c-12.1-6.9-26.6-11.4-45.6-11.4-40.4,0-60.6,20.5-80.1,40.3-8.5,8.6-16.8,17-26.6,23.7-9.8-6.6-18.2-15-26.6-23.7-19.5-19.8-39.7-40.3-80.1-40.3s-33.5,4.6-45.6,11.4c-12.1-6.9-26.6-11.4-45.6-11.4-40.4,0-60.6,20.5-80.1,40.3-8.5,8.6-16.8,17-26.6,23.7-9.8-6.6-18.1-15-26.6-23.7-19.5-19.8-39.7-40.3-80.1-40.3s-33.5,4.6-45.6,11.4c-12.1-6.9-26.6-11.4-45.6-11.4-40.4,0-60.6,20.5-80.1,40.3-8.5,8.6-16.8,17-26.6,23.7-9.8-6.6-18.2-15-26.6-23.7-19.5-19.8-39.7-40.3-80.1-40.3s-33.5,4.6-45.6,11.4c-12.1-6.9-26.6-11.4-45.6-11.4-40.4,0-60.6,20.5-80.1,40.3-8.5,8.6-16.8,17-26.6,23.7-9.8-6.6-18.1-15-26.6-23.7-19.5-19.8-39.7-40.3-80.1-40.3s-33.5,4.6-45.6,11.4c-12.1-6.9-26.6-11.4-45.6-11.4-40.4,0-60.6,20.5-80.1,40.3-8.5,8.6-16.8,17-26.6,23.7-9.8-6.6-18.1-15-26.6-23.7-19.5-19.8-39.7-40.3-80.1-40.3s-33.5,4.6-45.6,11.4c-12.1-6.9-26.6-11.4-45.6-11.4-40.4,0-60.6,20.5-80.1,40.3-8.5,8.6-16.8,17-26.6,23.7-9.8-6.6-18.2-15-26.6-23.7-19.5-19.8-39.7-40.3-80.1-40.3s-33.5,4.6-45.6,11.4c-12.1-6.9-26.6-11.4-45.6-11.4-40.4,0-60.6,20.5-80.1,40.3-8.5,8.6-16.8,17-26.7,23.7-9.8-6.6-18.2-15-26.7-23.7-19.5-19.8-39.7-40.3-80.1-40.3s-33.5,4.6-45.6,11.4c-12.1-6.9-26.6-11.4-45.6-11.4v10.6c14.3,0,25.6,2.9,35.4,7.6-9,6.7-16.7,14.5-24.3,22.2-4.7,4.8-9.3,9.5-14.2,13.8l-1.5,15.1c8.6-6.6,16.1-14.2,23.5-21.7,8.5-8.6,16.8-17,26.7-23.7,9.8,6.6,18.2,15,26.7,23.7,19.5,19.8,39.7,40.3,80.1,40.3s33.5-4.6,45.6-11.4c12.1,6.9,26.6,11.4,45.6,11.4,40.4,0,60.6-20.5,80.1-40.3,8.5-8.6,16.8-17,26.7-23.7,9.8,6.6,18.2,15,26.6,23.7,19.5,19.8,39.7,40.3,80.1,40.3s33.5-4.6,45.6-11.4c12.1,6.9,26.6,11.4,45.6,11.4,40.4,0,60.6-20.5,80.1-40.3,8.5-8.6,16.8-17,26.6-23.7,9.8,6.6,18.2,15,26.7,23.7,19.5,19.8,39.7,40.3,80.1,40.3s33.5-4.6,45.6-11.4c12.1,6.9,26.6,11.4,45.6,11.4,40.4,0,60.6-20.5,80.1-40.3,8.5-8.6,16.8-17,26.6-23.7,9.8,6.6,18.1,15,26.6,23.7,19.5,19.8,39.7,40.3,80.1,40.3s33.5-4.6,45.6-11.4c12.1,6.9,26.6,11.4,45.6,11.4,40.4,0,60.6-20.5,80.1-40.3,8.5-8.6,16.8-17,26.6-23.7,9.8,6.6,18.1,15,26.6,23.7,19.5,19.8,39.7,40.3,80.1,40.3s33.5-4.6,45.6-11.4c12.1,6.9,26.6,11.4,45.6,11.4,40.4,0,60.6-20.5,80.1-40.3,8.5-8.6,16.8-17,26.6-23.7,9.8,6.6,18.1,15,26.6,23.7,19.5,19.8,39.7,40.3,80.1,40.3s33.5-4.6,45.6-11.4c12.1,6.9,26.6,11.4,45.6,11.4,40.4,0,60.6-20.5,80.1-40.3,8.5-8.6,16.8-17,26.6-23.7,9.8,6.6,18.2,15,26.6,23.7,19.5,19.8,39.7,40.3,80.1,40.3s33.5-4.6,45.6-11.4c12.1,6.9,26.6,11.4,45.6,11.4,40.4,0,60.6-20.5,80.1-40.3,8.5-8.6,16.8-17,26.6-23.7,9.8,6.6,18.1,15,26.6,23.7,19.5,19.8,39.7,40.3,80.1,40.3s33.5-4.6,45.6-11.5c12.1,6.9,26.6,11.5,45.6,11.5,40.4,0,60.6-20.5,80.1-40.3,8.5-8.6,16.8-17,26.6-23.7,9.8,6.6,18.1,15,26.6,23.7,19.5,19.8,39.7,40.3,80.1,40.3s33.5-4.6,45.6-11.5c12.1,6.9,26.6,11.5,45.6,11.5,40.4,0,60.6-20.5,80.1-40.3,8.5-8.6,16.8-17,26.6-23.6,9.8,6.6,18.1,15,26.6,23.6,6.7,6.8,13.5,13.7,21.1,19.8l-1-15ZM177.1,769.4c-35.8,0-53.5-18-72.2-37.1-7.6-7.7-15.3-15.5-24.3-22.2,9.7-4.7,21.1-7.6,35.4-7.6,35.8,0,53.5,18,72.2,37.1,7.6,7.7,15.3,15.5,24.3,22.2-9.7,4.7-21.1,7.6-35.4,7.6ZM340.5,732.3c-18.8,19.1-36.5,37.1-72.2,37.1s-25.6-2.9-35.4-7.6c9-6.7,16.7-14.5,24.3-22.2,18.8-19.1,36.5-37.1,72.2-37.1s25.6,2.9,35.4,7.6c-9,6.7-16.7,14.5-24.3,22.2ZM481.7,769.4c-35.8,0-53.5-18-72.2-37.1-7.6-7.7-15.3-15.5-24.3-22.2,9.7-4.7,21.1-7.6,35.4-7.6,35.8,0,53.5,18,72.3,37.1,7.6,7.7,15.3,15.5,24.3,22.2-9.7,4.7-21.1,7.6-35.4,7.6ZM645.2,732.3c-18.8,19.1-36.5,37.1-72.2,37.1s-25.7-2.9-35.4-7.6c9-6.7,16.7-14.5,24.3-22.2,18.8-19.1,36.5-37.1,72.3-37.1s25.7,2.9,35.4,7.6c-9,6.7-16.7,14.5-24.3,22.2ZM786.4,769.4c-35.8,0-53.5-18-72.3-37.1-7.6-7.7-15.3-15.5-24.3-22.2,9.7-4.7,21.1-7.6,35.4-7.6,35.8,0,53.5,18,72.3,37.1,7.6,7.7,15.3,15.5,24.3,22.2-9.7,4.7-21.1,7.6-35.4,7.6ZM949.9,732.3c-18.8,19.1-36.5,37.1-72.2,37.1s-25.7-2.9-35.4-7.6c9-6.7,16.7-14.5,24.3-22.2,18.8-19.1,36.5-37.1,72.3-37.1s25.7,2.9,35.4,7.6c-9,6.7-16.7,14.5-24.3,22.2ZM1091.1,769.4c-35.8,0-53.5-18-72.3-37.1-7.6-7.7-15.3-15.5-24.3-22.2,9.7-4.7,21.1-7.6,35.4-7.6,35.8,0,53.5,18,72.2,37.1,7.6,7.7,15.3,15.5,24.3,22.2-9.7,4.7-21.1,7.6-35.4,7.6ZM1254.5,732.3c-18.8,19.1-36.5,37.1-72.2,37.1s-25.7-2.9-35.4-7.6c9-6.7,16.7-14.5,24.3-22.2,18.8-19.1,36.5-37.1,72.3-37.1s25.7,2.9,35.4,7.6c-9,6.7-16.7,14.5-24.3,22.2ZM1395.8,769.4c-35.8,0-53.5-18-72.3-37.1-7.6-7.7-15.3-15.5-24.3-22.2,9.7-4.7,21.1-7.6,35.4-7.6,35.8,0,53.5,18,72.3,37.1,7.6,7.7,15.3,15.5,24.3,22.2-9.7,4.7-21.1,7.6-35.4,7.6ZM1559.2,732.3c-18.8,19.1-36.5,37.1-72.3,37.1s-25.7-2.9-35.4-7.6c9-6.7,16.7-14.5,24.3-22.2,18.8-19.1,36.5-37.1,72.3-37.1s25.7,2.9,35.4,7.6c-9,6.7-16.7,14.5-24.3,22.2ZM1700.4,769.4c-35.8,0-53.5-18-72.2-37.1-7.6-7.7-15.3-15.5-24.3-22.2,9.7-4.7,21.1-7.6,35.4-7.6,35.8,0,53.5,18,72.3,37.1,7.6,7.7,15.3,15.5,24.3,22.2-9.7,4.7-21.1,7.6-35.4,7.6ZM1863.9,732.3c-18.8,19.1-36.5,37.1-72.2,37.1s-25.7-2.9-35.4-7.6c9-6.7,16.7-14.5,24.3-22.2,18.8-19.1,36.5-37.1,72.3-37.1s25.7,2.9,35.4,7.6c-9,6.7-16.7,14.5-24.3,22.2ZM2005.2,769.4c-35.8,0-53.5-18-72.2-37.1-7.6-7.7-15.3-15.5-24.3-22.2,9.7-4.7,21.1-7.6,35.4-7.6,35.8,0,53.5,18,72.3,37.1,7.6,7.7,15.3,15.5,24.3,22.2-9.7,4.7-21.1,7.6-35.4,7.6ZM2168.6,732.3c-18.8,19.1-36.5,37.1-72.2,37.1s-25.7-2.9-35.4-7.6c9-6.7,16.7-14.5,24.3-22.2,18.8-19.1,36.5-37.1,72.3-37.1s25.7,2.9,35.4,7.6c-9,6.7-16.7,14.5-24.3,22.2ZM2309.8,769.4c-35.8,0-53.5-18-72.3-37.1-7.6-7.7-15.3-15.5-24.3-22.2,9.7-4.7,21.1-7.6,35.4-7.6,35.8,0,53.5,18,72.3,37.1,7.6,7.7,15.3,15.5,24.3,22.2-9.7,4.7-21.1,7.6-35.4,7.6ZM2473.3,732.3c-18.8,19.1-36.5,37.1-72.3,37.1s-25.7-2.9-35.4-7.6c9-6.7,16.7-14.5,24.3-22.2,18.8-19.1,36.5-37.1,72.3-37.1s25.7,2.9,35.4,7.6c-9,6.7-16.7,14.5-24.3,22.2ZM2614.6,769.4c-35.8,0-53.5-18-72.3-37.1-7.6-7.7-15.3-15.5-24.3-22.2,9.7-4.7,21.1-7.6,35.4-7.6,35.8,0,53.5,18,72.3,37.1,7.6,7.7,15.3,15.5,24.3,22.2-9.7,4.7-21.1,7.6-35.4,7.6ZM2778.1,732.3c-18.8,19.1-36.5,37.1-72.3,37.1s-25.7-2.9-35.4-7.6c9-6.7,16.7-14.5,24.3-22.2,18.8-19.1,36.5-37.1,72.3-37.1s25.7,2.9,35.4,7.6c-9,6.7-16.7,14.5-24.3,22.2Z"/>
  <rect class="st11" x="16.2" y="13.3" width="2848" height="247"/>
  <g>
    <g>
      <g>
        <rect class="st10" x="2600.8" y="70.4" width="209.7" height="142.7" rx="20.1" ry="20.1"/>
        <rect class="st3" x="2600.8" y="70.4" width="209.7" height="142.7" rx="20.1" ry="20.1"/>
      </g>
      <polygon class="st5" points="2627.4 141.9 2706.3 196.4 2785.3 141.9 2706.3 87.4 2627.4 141.9"/>
      <g>
        <circle class="st8" cx="2706.6" cy="141.7" r="39.1" transform="translate(692.5 1955.3) rotate(-45)"/>
        <g>
          <path class="st4" d="M2668.6,132.3c-.7,3-1.1,6.2-1.1,9.4,0,21.6,17.5,39.1,39.1,39.1s32.4-11.6,37.3-27.5c-16-13.9-37-22.3-59.9-22.3s-10.4.5-15.4,1.3Z"/>
          <path class="st4" d="M2745.4,147c.2-1.7.4-3.5.4-5.3,0-21.6-17.5-39.1-39.1-39.1s-29.9,9.7-35.9,23.5c4.4-.6,8.8-.9,13.3-.9,23.2,0,44.6,8.2,61.3,21.8Z"/>
        </g>
        <g>
          <path class="st6" d="M2675.3,129.7c-.2.3-.6.5-1.1.5-.5,0-.9,0-1.2-.3-.4-.3-.6-.7-.7-1.3,0-.6,0-1.1.4-1.4.2-.3.6-.5,1.1-.5.5,0,.9,0,1.2.3.4.3.6.7.7,1.3,0,.6,0,1.1-.4,1.4ZM2674.8,129.3c.1-.2.2-.5.2-.9,0-.4-.2-.7-.3-.8-.2-.2-.4-.3-.7-.2-.3,0-.5.2-.7.4-.2.2-.2.5-.2.9,0,.4.2.7.3.8.2.2.4.3.7.2.3,0,.5-.2.7-.4Z"/>
          <path class="st6" d="M2679.7,126.5c.1,0,.2.1.3.2,0,0,.1.2.2.3,0,.1,0,.2,0,.3,0,.2,0,.3-.1.5,0,.2-.2.3-.4.3.2,0,.3.1.4.2,0,.1.1.3.1.5v.2c0,.2,0,.3,0,.3,0,0,0,.1.1.2h0c0,0-.8.1-.8.1,0,0,0-.1,0-.2,0,0,0-.2,0-.3v-.3c0-.2,0-.4-.2-.4,0,0-.2,0-.4,0h-.7s0,1.3,0,1.3h-.7s-.2-3.3-.2-3.3h1.7c.2,0,.4,0,.6,0ZM2678.2,127v.9s.8,0,.8,0c.2,0,.3,0,.4,0,.1,0,.2-.2.2-.4,0-.2,0-.3-.2-.4,0,0-.2,0-.3,0h-.8Z"/>
          <path class="st6" d="M2684.4,126.4c.2,0,.4.2.6.4.1.2.2.3.3.5,0,.2,0,.4,0,.6,0,.4,0,.8-.3,1.1-.3.4-.6.6-1.2.6h-1.5s0-3.4,0-3.4h1.5c.2,0,.4,0,.5,0ZM2683,126.9v2.2s.7,0,.7,0c.3,0,.6-.2.7-.5,0-.2.1-.4.1-.6,0-.3,0-.6-.2-.8-.1-.2-.3-.3-.7-.3h-.7Z"/>
          <path class="st6" d="M2689.8,127.1h-1.9c0,0,0,.6,0,.6h1.7c0,0,0,.7,0,.7h-1.7c0,0,0,.8,0,.8h1.9c0,0,0,.7,0,.7h-2.7c0-.1.2-3.5.2-3.5h2.6c0,.1,0,.7,0,.7Z"/>
          <path class="st6" d="M2694.1,126.9h1.1c0,.1-.3,3.4-.3,3.4h-.7c0,0,.2-2.3.2-2.3,0,0,0-.2,0-.3,0-.1,0-.2,0-.3l-1,2.7h-.7c0,0-.4-2.9-.4-2.9,0,0,0,.2,0,.3,0,.1,0,.2,0,.3l-.2,2.3h-.7c0,0,.3-3.4.3-3.4h1.1c0,.1.4,2.8.4,2.8l.9-2.6Z"/>
          <path class="st6" d="M2702.3,128.7l-1.8-.3v.7c-.1,0,1.6.3,1.6.3v.6c-.1,0-1.8-.3-1.8-.3l-.2.8,1.9.4v.6c-.1,0-2.7-.5-2.7-.5l.6-3.3,2.5.5v.6Z"/>
          <path class="st6" d="M2708.7,131.6c-.2.1-.5.1-.9,0l-.7-.2-.3,1.2-.7-.2.9-3.2,1.5.4c.3,0,.6.2.7.5.2.2.2.5,0,.9-.1.4-.3.6-.5.7ZM2708.5,130.3c0,0-.2-.2-.4-.2l-.6-.2-.3,1,.6.2c.2,0,.3,0,.4,0,.1,0,.2-.2.2-.3,0-.2,0-.3,0-.4Z"/>
          <path class="st6" d="M2713.5,131.2c.1,0,.2.2.2.3,0,.1,0,.2,0,.3,0,.1,0,.2,0,.4,0,.2-.1.3-.3.4-.1.1-.3.2-.5.2.1.1.2.2.2.4,0,.1,0,.3,0,.5v.2c-.1.1-.1.2-.1.3,0,0,0,.2,0,.2h0c0,0-.8-.2-.8-.2,0,0,0-.1,0-.2,0,0,0-.2,0-.3v-.3c.2-.2.2-.4.1-.4,0,0-.2-.2-.4-.2l-.7-.2-.4,1.3-.7-.2,1-3.2,1.6.5c.2,0,.4.2.5.3ZM2711.9,131.2l-.3.9.8.2c.2,0,.3,0,.4,0,.2,0,.3-.1.3-.3,0-.2,0-.3,0-.5,0,0-.2-.1-.3-.2l-.8-.2Z"/>
          <path class="st6" d="M2717.5,135.7c-.3.2-.7.1-1.2,0-.5-.2-.8-.4-.9-.8-.2-.4-.2-.9,0-1.5.2-.6.5-.9,1-1.1.3-.2.7-.1,1.2,0,.5.2.8.4.9.8.2.4.2.9,0,1.5-.2.6-.5.9-1,1.1ZM2717.2,135.1c.2-.1.4-.4.5-.7.1-.4.2-.7,0-.9,0-.3-.3-.4-.5-.5-.3-.1-.5,0-.8,0-.2.1-.4.4-.6.7-.1.4-.2.7,0,.9,0,.3.3.4.5.5.3.1.5,0,.8,0Z"/>
          <path class="st6" d="M2722.6,135.7c0-.2,0-.4-.2-.6,0,0-.2-.2-.3-.2-.3-.1-.5-.1-.8,0-.2.1-.5.4-.6.7-.2.4-.2.7,0,.9.1.2.3.4.5.5.2,0,.4.1.6,0,.2,0,.4-.2.5-.4l-.7-.3.2-.5,1.3.6-.7,1.6-.4-.2v-.4c0,0-.3.1-.4.2-.2,0-.5,0-.7-.1-.4-.2-.7-.5-.9-.9-.2-.4-.1-.9,0-1.3.2-.5.5-.8,1-1,.4-.2.9-.2,1.3,0,.4.2.7.4.9.7.2.3.2.6.1.9l-.7-.3Z"/>
          <path class="st6" d="M2727.5,137c0,.1.2.2.2.4,0,.1,0,.2,0,.3,0,.1,0,.2,0,.3,0,.1-.2.3-.3.4-.1,0-.3.1-.5.1.1.1.2.3.2.4,0,.1,0,.3-.1.5v.2c-.2.1-.2.2-.2.3,0,0,0,.2,0,.2h0c0,0-.7-.3-.7-.3,0,0,0-.1,0-.2,0,0,0-.2.1-.3v-.3c.2-.2.3-.3.2-.4,0,0-.1-.2-.3-.3l-.6-.3-.6,1.2-.6-.3,1.5-3,1.5.8c.2.1.4.2.5.3ZM2725.9,136.8l-.4.8.7.4c.1,0,.3.1.3.1.2,0,.3,0,.4-.2,0-.2,0-.3,0-.5,0,0-.1-.1-.3-.2l-.7-.4Z"/>
          <path class="st6" d="M2731.8,139.9l-1.6-.9-.3.6,1.5.8-.3.5-1.5-.8-.4.8,1.7,1-.3.5-2.3-1.3,1.6-2.9,2.2,1.3-.3.5Z"/>
          <path class="st6" d="M2733.1,142.7c0,.1,0,.3,0,.4,0,.2.2.4.4.5.1,0,.3.2.4.2.2,0,.4,0,.5-.2,0,0,0-.2,0-.3,0-.1-.2-.2-.3-.4l-.3-.3c-.3-.3-.4-.5-.5-.6-.1-.3,0-.5,0-.8.2-.3.4-.4.7-.4.3,0,.6,0,1,.3.3.2.5.5.7.7.1.3,0,.6,0,.9l-.6-.4c0-.2,0-.3,0-.5,0-.1-.2-.2-.3-.3-.2-.1-.3-.2-.5-.2-.1,0-.2,0-.3.2,0,.1,0,.2,0,.3,0,0,.1.2.3.4l.4.4c.2.2.3.4.4.5,0,.2,0,.5,0,.7-.2.3-.4.4-.7.4-.3,0-.7,0-1.1-.3-.4-.2-.6-.5-.8-.8-.1-.3,0-.6.1-.9l.6.4Z"/>
          <path class="st6" d="M2736.8,145.2c0,.1,0,.3,0,.4,0,.2.2.4.4.5.1.1.3.2.4.2.2,0,.4,0,.5-.1,0,0,0-.2,0-.3,0-.1-.2-.2-.3-.4l-.3-.3c-.3-.3-.4-.5-.5-.7-.1-.3,0-.5.1-.8.2-.2.4-.4.7-.4.3,0,.6,0,1,.3.3.2.5.5.6.8.1.3,0,.6-.1.9l-.6-.4c.1-.2.1-.3,0-.5,0-.1-.2-.2-.3-.3-.2-.1-.3-.2-.4-.2-.1,0-.2,0-.3.2,0,0,0,.2,0,.3,0,0,.1.2.3.4l.4.5c.2.2.3.4.4.5,0,.3,0,.5-.1.7-.2.3-.4.4-.7.4-.3,0-.7,0-1-.4-.4-.3-.6-.6-.7-.9-.1-.3,0-.6.1-.9l.6.4Z"/>
          <path class="st6" d="M2741.7,149.7c-.4,0-.8,0-1.1-.4-.4-.3-.6-.6-.7-1,0-.5,0-.9.4-1.4.4-.5.8-.7,1.3-.8.4,0,.8,0,1.2.4.4.3.6.6.7,1,0,.5,0,.9-.4,1.4-.4.5-.8.7-1.3.8ZM2741.7,149c.3,0,.5-.2.7-.5.2-.3.3-.6.3-.8,0-.3-.1-.5-.4-.7-.2-.2-.5-.2-.7-.2-.3,0-.5.2-.7.5-.2.3-.3.6-.3.8,0,.3.1.5.4.7.2.2.5.2.7.2Z"/>
        </g>
        <g>
          <polygon class="st8" points="2679.1 151.7 2680.1 151 2678.9 151 2678.5 149.8 2678.2 151 2676.9 151 2677.9 151.7 2677.5 152.8 2678.5 152.1 2679.5 152.8 2679.5 152.8 2679.5 152.8 2679.1 151.7"/>
          <polygon class="st8" points="2675.5 135.2 2676.5 134.5 2675.3 134.5 2674.9 133.3 2674.6 134.5 2673.3 134.5 2674.3 135.2 2674 136.3 2674.9 135.6 2675.9 136.3 2675.9 136.3 2675.9 136.3 2675.5 135.2"/>
          <polygon class="st8" points="2707.6 159.8 2708.6 159 2707.4 159 2707 157.9 2706.7 159 2705.4 159 2706.4 159.8 2706.1 160.9 2707 160.2 2708 160.9 2708 160.9 2708 160.9 2707.6 159.8"/>
          <polygon class="st8" points="2719.5 129.6 2720.5 128.9 2719.3 128.9 2718.9 127.7 2718.6 128.9 2717.3 128.9 2718.3 129.6 2717.9 130.7 2718.9 130 2719.9 130.7 2719.9 130.7 2719.9 130.7 2719.5 129.6"/>
          <polygon class="st8" points="2735 155.7 2736 155 2734.8 155 2734.4 153.8 2734 155 2732.8 155 2733.8 155.7 2733.4 156.9 2734.4 156.2 2735.4 156.9 2735.4 156.9 2735.4 156.9 2735 155.7"/>
          <polygon class="st8" points="2691.8 163 2692.8 162.3 2691.6 162.3 2691.2 161.1 2690.8 162.3 2689.6 162.3 2690.6 163 2690.2 164.2 2691.2 163.5 2692.2 164.2 2692.2 164.2 2692.2 164.2 2691.8 163"/>
          <polygon class="st8" points="2687.2 155.2 2688 154.7 2687 154.7 2686.7 153.7 2686.4 154.7 2685.4 154.7 2686.2 155.2 2685.9 156.2 2686.7 155.6 2687.5 156.2 2687.5 156.2 2687.5 156.2 2687.2 155.2"/>
          <polygon class="st8" points="2692.5 143.8 2693.3 143.2 2692.3 143.2 2692 142.3 2691.7 143.2 2690.7 143.2 2691.5 143.8 2691.2 144.7 2692 144.1 2692.8 144.7 2692.8 144.7 2692.8 144.7 2692.5 143.8"/>
          <polygon class="st8" points="2707.5 148.3 2708.3 147.7 2707.3 147.7 2707 146.7 2706.6 147.7 2705.7 147.7 2706.5 148.3 2706.2 149.2 2707 148.6 2707.8 149.2 2707.8 149.2 2707.8 149.2 2707.5 148.3"/>
          <polygon class="st8" points="2686 159.3 2686.7 158.8 2685.8 158.8 2685.6 158 2685.3 158.8 2684.4 158.8 2685.1 159.3 2684.9 160.1 2685.6 159.7 2686.2 160.1 2686.2 160.1 2686.2 160.1 2686 159.3"/>
          <polygon class="st8" points="2703.5 151.8 2704.2 151.3 2703.3 151.3 2703.1 150.5 2702.8 151.3 2702 151.3 2702.6 151.8 2702.4 152.6 2703.1 152.1 2703.8 152.6 2703.8 152.6 2703.8 152.6 2703.5 151.8"/>
          <polygon class="st8" points="2718 140.1 2718.7 139.6 2717.9 139.6 2717.6 138.7 2717.3 139.6 2716.5 139.6 2717.2 140.1 2716.9 140.9 2717.6 140.4 2718.3 140.9 2718.3 140.9 2718.3 140.9 2718 140.1"/>
          <polygon class="st8" points="2711.9 151.9 2712.7 151.3 2711.8 151.3 2711.4 150.3 2711.1 151.3 2710.1 151.3 2710.9 151.9 2710.6 152.8 2711.4 152.2 2712.2 152.8 2712.2 152.8 2712.2 152.8 2711.9 151.9"/>
          <polygon class="st8" points="2736.5 159.3 2737.3 158.7 2736.3 158.7 2736 157.7 2735.7 158.7 2734.7 158.7 2735.5 159.3 2735.2 160.2 2736 159.6 2736.8 160.2 2736.8 160.2 2736.8 160.2 2736.5 159.3"/>
          <polygon class="st8" points="2734.1 162.4 2734.9 161.8 2733.9 161.8 2733.6 160.9 2733.3 161.8 2732.3 161.8 2733.1 162.4 2732.8 163.3 2733.6 162.7 2734.4 163.3 2734.4 163.3 2734.4 163.3 2734.1 162.4"/>
          <polygon class="st8" points="2674.2 155 2675 154.4 2674 154.4 2673.7 153.5 2673.4 154.4 2672.4 154.4 2673.2 155 2672.9 155.9 2673.7 155.3 2674.5 155.9 2674.5 155.9 2674.5 155.9 2674.2 155"/>
          <polygon class="st8" points="2727 167.4 2727.8 166.9 2726.8 166.9 2726.5 165.9 2726.2 166.9 2725.2 166.9 2726 167.4 2725.7 168.4 2726.5 167.8 2727.3 168.4 2727.3 168.4 2727.3 168.4 2727 167.4"/>
          <polygon class="st8" points="2726.8 171.5 2727.6 171 2726.6 171 2726.4 170.1 2726.1 171 2725.2 171 2725.9 171.5 2725.6 172.4 2726.4 171.9 2727.1 172.4 2727.1 172.4 2727.1 172.4 2726.8 171.5"/>
          <polygon class="st8" points="2716.1 164.2 2716.9 163.6 2716 163.6 2715.7 162.8 2715.4 163.6 2714.5 163.6 2715.2 164.2 2714.9 165 2715.7 164.5 2716.4 165 2716.4 165 2716.4 165 2716.1 164.2"/>
          <polygon class="st8" points="2722.6 165 2723.4 164.4 2722.5 164.4 2722.2 163.6 2721.9 164.4 2721 164.4 2721.7 165 2721.5 165.8 2722.2 165.3 2722.9 165.8 2722.9 165.8 2722.9 165.8 2722.6 165"/>
          <polygon class="st8" points="2726.9 163.5 2727.6 163 2726.7 163 2726.5 162.1 2726.2 163 2725.3 163 2726 163.5 2725.7 164.4 2726.5 163.8 2727.2 164.4 2727.2 164.4 2727.2 164.4 2726.9 163.5"/>
          <polygon class="st8" points="2730.7 164.3 2731.5 163.8 2730.5 163.8 2730.3 162.9 2730 163.8 2729.1 163.8 2729.8 164.3 2729.5 165.2 2730.3 164.6 2731 165.2 2731 165.2 2731 165.2 2730.7 164.3"/>
          <polygon class="st8" points="2740.4 156.2 2741.1 155.7 2740.2 155.7 2739.9 154.8 2739.6 155.7 2738.7 155.7 2739.5 156.2 2739.2 157.1 2739.9 156.6 2740.7 157.1 2740.7 157.1 2740.7 157.1 2740.4 156.2"/>
          <polygon class="st8" points="2705.3 154.8 2705.9 154.4 2705.2 154.4 2705 153.7 2704.8 154.4 2704.1 154.4 2704.7 154.8 2704.4 155.4 2705 155 2705.5 155.4 2705.5 155.4 2705.5 155.4 2705.3 154.8"/>
          <polygon class="st8" points="2682.8 149 2683.3 148.6 2682.7 148.6 2682.5 148 2682.3 148.6 2681.6 148.6 2682.1 149 2681.9 149.7 2682.5 149.3 2683 149.7 2683 149.7 2683 149.7 2682.8 149"/>
          <polygon class="st8" points="2707.1 172.6 2707.7 172.2 2707 172.2 2706.8 171.6 2706.6 172.2 2705.9 172.2 2706.5 172.6 2706.3 173.2 2706.8 172.8 2707.4 173.2 2707.4 173.2 2707.4 173.2 2707.1 172.6"/>
          <polygon class="st8" points="2719 168.3 2719.8 167.8 2718.9 167.8 2718.6 166.8 2718.2 167.8 2717.3 167.8 2718.1 168.3 2717.7 169.3 2718.6 168.7 2719.4 169.3 2719.4 169.3 2719.4 169.3 2719 168.3"/>
        </g>
      </g>
    </g>
    <path class="st8" d="M2790.3,216.8h-169.1c-13.3,0-24.1-10.8-24.1-24.1v-101.2c0-13.3,10.8-24.1,24.1-24.1h169.1c13.3,0,24.1,10.8,24.1,24.1v101.2c0,13.3-10.8,24.1-24.1,24.1ZM2621.2,73.7c-9.8,0-17.7,7.9-17.7,17.7v101.2c0,9.8,7.9,17.7,17.7,17.7h169.1c9.8,0,17.7-7.9,17.7-17.7v-101.2c0-9.8-7.9-17.7-17.7-17.7h-169.1Z"/>
  </g>
  <path class="st0" d="M2840.6,891.1H38.5c-21.2,0-38.5-17.2-38.5-38.5V38.5C0,17.2,17.2,0,38.5,0h2802.1c21.2,0,38.5,17.2,38.5,38.5v814.2c0,21.2-17.3,38.5-38.5,38.5ZM38.5,26.6c-6.5,0-11.8,5.3-11.8,11.8v814.2c0,6.5,5.3,11.8,11.8,11.8h2802.1c6.5,0,11.9-5.3,11.9-11.8V38.5c0-6.5-5.3-11.8-11.9-11.8H38.5Z"/>
  <circle class="st7" cx="859.6" cy="76.9" r="20.1"/>
  <circle class="st7" cx="2103" cy="76.9" r="20.1"/>
  <g>
    <path class="st8" d="M1235.5,117.5c4.9-1.1,14.7-1.9,23.9-1.9s18.2,1.2,24.2,5.1c5.7,3.4,9.8,9.6,9.8,17.8s-4.2,15.7-13.5,19.4v.3c9.4,2.8,16.3,10.7,16.3,22.4s-3.4,14.7-8.5,19.3c-6,5.3-15.9,8.2-32.2,8.2s-15.9-.7-20-1.3v-89.4ZM1253.8,152.3h6.1c9.7,0,14.9-4.5,14.9-11.2s-4.7-10.5-13.1-10.5-6.3.3-7.9.5v21.2ZM1253.8,192.7c1.8.3,4,.3,7.2.3,8.4,0,15.8-3.5,15.8-13.1s-7.4-12.8-16.6-12.8h-6.3v25.6Z"/>
    <path class="st8" d="M1321,117.5c6-1.1,14.8-1.9,24.7-1.9s20.7,2,26.5,7.2c4.9,4.3,7.5,10.7,7.5,19s-7.4,19.6-14.5,22.4v.4c5.7,2.6,8.9,8.6,10.9,17,2.5,10.3,5.1,22.1,6.7,25.6h-18.9c-1.3-2.6-3.3-10-5.7-21.2-2.2-11.3-5.7-14.4-13.2-14.6h-5.6v35.8h-18.3v-89.8ZM1339.3,156.7h7.3c9.2,0,14.7-5.1,14.7-13.1s-5.1-12.6-13.6-12.7c-4.5,0-7,.4-8.4.7v25.1Z"/>
    <path class="st8" d="M1425.4,183.9l-5.8,23.4h-19.2l25-91h24.3l25.4,91h-19.9l-6.3-23.4h-23.4ZM1446.1,168.5l-5.1-19.3c-1.5-5.4-2.9-12.1-4.1-17.5h-.2c-1.2,5.4-2.4,12.3-3.8,17.5l-4.9,19.3h18.1Z"/>
    <path class="st8" d="M1498.7,186.1c5,2.8,12.6,5.7,20.5,5.7s13-3.9,13-9.9-3.9-8.9-13.7-12.8c-13.6-5.3-22.5-13.6-22.5-26.9s11.7-27.4,31-27.4,16,2.2,20.9,4.6l-4.1,16.6c-3.3-1.8-9.1-4.3-17.1-4.3s-11.9,4-11.9,8.8,4.6,8.4,15.2,12.8c14.5,5.9,21.3,14.3,21.3,27.1s-10.6,28.2-33,28.2-18.6-2.7-23.2-5.5l3.8-17Z"/>
    <path class="st8" d="M1594.5,116.3v91h-18.6v-91h18.6Z"/>
    <path class="st8" d="M1622.7,116.3h18.6v73.7h32.6v17.3h-51.1v-91Z"/>
  </g>
  <g>
    <path class="st2" d="M77.5,691.9c7.1-1.8,16.2-2.7,26.3-2.7s21.9,1.6,30.2,9.9c6.3,6.2,9,15.4,9,25s-5.5,24.2-17.3,30.2v.8c13.8,4.5,21.2,17.9,21.2,33s-3.2,20.3-8.8,27.1c-7.1,9-19.1,14-39,14s-16.2-.6-21.5-1.4v-135.9ZM100.6,746.7h4.9c8.3,0,14.6-8.2,14.6-19.5s-4.1-17.9-13.6-17.9-4.6.2-6,.8v36.5ZM100.6,808.1c1.4.4,3,.4,5.1.4,9.4,0,17.1-6.6,17.1-20.7s-8.1-20.9-17.3-21.1h-4.9v41.5Z"/>
    <path class="st2" d="M163.6,691.9c7.2-1.6,16.4-2.7,25.2-2.7,12.7,0,24,2.1,31.8,10.3,7.2,7.6,9.4,16.8,9.4,28.7s-6.2,28.1-18.3,34.7v.4c8.1,3.7,12.2,12.5,14.5,27.3,2.3,15.4,5.5,32.4,7.6,37.6h-24.2c-1.4-3.9-4.1-17.9-5.8-33.1-2.1-17.2-5.8-22.2-13.6-22.2h-3.4v55.2h-23.1v-136.3ZM186.7,752.3h4.1c10.1,0,15.9-9.4,15.9-21.6s-4.1-20.1-14.5-20.5c-1.9,0-4.2.2-5.5.8v41.3Z"/>
  </g>
</svg>