<?xml version="1.0" encoding="UTF-8"?>
<svg id="Camada_1" xmlns="http://www.w3.org/2000/svg" version="1.1" viewBox="0 0 183.1 301.2">
  <!-- Generator: Adobe Illustrator 29.0.0, SVG Export Plug-In . SVG Version: 2.1.0 Build 186)  -->
  <defs>
    <style>
      .st0 {
        fill: #1d1d1b;
      }
    </style>
  </defs>
  <path class="st0" d="M64.4,301.7c-14.9,0-26.7-6.7-35-20-7.3-11.4-11-26-11-43.2V63.3c0-22.5,5-39.2,14.9-49.9C41.8,4.2,53.4-.5,67.8-.5h44c16.4,0,29.3,4.1,38.1,12.1,6.9,6.3,10.4,13.3,10.4,21s-.7,7.2-2.3,9.1l-21.6,26.1c-1.2,1.4-2.9,2.2-4.7,2.2s-2.6-.4-4.1-1.1c-3.1-1.6-4.8-4.3-4.8-7.9v-14.6c0-2.4-.6-3.7-4.1-3.7h-51.7c-1.5,0-2.5.4-3.2,1.4-.9,1.1-1.4,2.4-1.4,3.9v195.4c0,2.3.5,3.8,1.3,4.4,1.1.8,2.5,1.2,4.2,1.2h48.7c3.5,0,4.1-1.1,4.1-3.3V101c0-1.3.2-2.5.7-3.4.4-.8.7-1.3,1.1-1.7,12.6-13.5,20.5-22.1,24.3-26.3,3.7-4.2,7.2-8.4,10.3-12.3.6-.7,1.8-1.3,2.8-1.3s1.5.2,2.4.7c1.7.9,2.6,2.3,2.6,4.1v182.9c0,18.5-4.6,33.4-13.7,44.1-8,9.3-17.7,14.1-29,14.1h-57.6Z"/>
</svg>