<?xml version="1.0" encoding="UTF-8"?>
<svg id="Camada_1" xmlns="http://www.w3.org/2000/svg" version="1.1" viewBox="0 0 183.1 301.2">
  <!-- Generator: Adobe Illustrator 29.0.0, SVG Export Plug-In . SVG Version: 2.1.0 Build 186)  -->
  <defs>
    <style>
      .st0 {
        fill: #1d1d1b;
      }
    </style>
  </defs>
  <path class="st0" d="M23.2,301.7c-2.9,0-5.2-1.4-6.4-4-.9-1.9-1.4-4.3-1.4-7.2v-33.7c0-8.3,6-8.9,7.8-8.9h58.1c1,0,1.7,0,2.2-.1V68.4c0,0-.1.1-.2.1-.7.5-3.6,3.6-16.4,20.3-7.8,10.1-13.9,14.8-19.1,14.8h-25.7c-3.5,0-5.3-2.9-5.3-8.6v-27.1c0-4.2,2.6-7.8,7.9-10.8,7.8-4.4,10.1-6.4,10.8-7.2L79,2.2c0,0,.2-.2.3-.3,1.9-1.6,4.3-2.4,7.3-2.4h32.4c2.6,0,5,.9,6.9,2.6,2,1.8,3.1,4.1,3.1,6.6v236.4c0,2.8.9,2.8,1.9,2.8s.7,0,1.1,0c.2,0,.3,0,.5,0h27.4c4.8,0,7.8,2.8,7.8,7.3v39.7c0,4.3-3,6.9-7.8,6.9H23.2Z"/>
</svg>