<?xml version="1.0" encoding="UTF-8"?>
<svg id="Camada_1" xmlns="http://www.w3.org/2000/svg" version="1.1" viewBox="0 0 183.1 301.2">
  <!-- Generator: Adobe Illustrator 29.0.0, SVG Export Plug-In . SVG Version: 2.1.0 Build 186)  -->
  <defs>
    <style>
      .st0 {
        fill: #1d1d1b;
      }
    </style>
  </defs>
  <path class="st0" d="M22.8,301.2c-2.5,0-8.4-1.1-8.4-10.9v-41.1c0-5.6,3.7-12.8,11.2-22,6.3-7.4,12.7-14.7,19.2-22l32.9-40.4c15.8-20.9,25.1-33.5,27.4-37.5,11.7-19.1,17.6-36.6,17.6-51.9s-1.1-12.1-3.3-16.9c-2.5-5.4-5.7-6-7.9-6h-38.5c-.2,0-.9,0-2.1,1.1-.5.4-1.1,1.1-1.1,2.9v26.5c0,2.3-1,7.6-10,7.6h-26.8c-5.6,0-8.9-2.8-8.9-7.6v-37c0-9.6,4-19.3,12-28.8C45.5,5.8,57.6,0,71.8,0h51.2C137.7,0,149.4,8.2,157.9,24.5c7.2,13.8,10.8,29.6,10.8,46.9s-1.4,21.2-4.2,33.7c-2.8,12.4-6.2,23.7-10.1,33.7-3.9,10-8.9,19.2-14.7,27.5-5.1,7.2-13,17.1-24.2,30.3l-36.2,43c-2.5,2.8-3.8,5.4-3.8,7.7s.2,1.4,1.3,1.4h83c5.8,0,7.8,3.4,7.8,6.6v38c0,5-2.9,7.9-7.8,7.9H22.8Z"/>
</svg>