<?xml version="1.0" encoding="UTF-8"?>
<svg id="Camada_1" xmlns="http://www.w3.org/2000/svg" version="1.1" viewBox="0 0 183.1 301.2">
  <!-- Generator: Adobe Illustrator 29.0.0, SVG Export Plug-In . SVG Version: 2.1.0 Build 186)  -->
  <defs>
    <style>
      .st0 {
        fill: #1d1d1b;
      }
    </style>
  </defs>
  <path class="st0" d="M92.1,300.7c-28.7,0-49.6-7.6-61.9-22.6-10.7-12.8-16.2-32.9-16.2-59.7s.7-7.9,2.3-9.8c2.1-2.8,4.8-3.4,6.7-3.4s.3,0,.5,0c1.2.2,2.1.3,2.6.3h28.8c2.4,0,6.4,1.2,6.4,9.6s.2,10.9.5,13.6c.3,2.4,1.6,5.2,3.9,8.3,3,4.2,6.4,7.1,10.2,8.6,3.9,1.6,8.6,2.4,13.9,2.4,10,0,17.9-2.6,23.4-7.8,5.5-5.1,8.3-12.5,8.3-21.8v-29.9c-.9-5.3-2-9.1-3.3-11.4-4.2-7.4-11.3-11-21.4-11h-23.9c-.2,0-.3,0-.5,0l-4.4-.7c-3-.5-4.9-2.5-4.9-5.2v-27.8c0-.2,0-.4,0-.6.8-3.9,1.4-5.1,2-5.9l56.7-69.5c0-.2.2-1,.2-2.5v-4.3c0-3.7-.3-5.5-.6-6.3H31.8c-1.8,0-3.4-.5-4.9-1.6-2.6-1.9-4-4.5-4-7.7V9.7c0-2.5.9-4.7,2.6-6.5C27.8,1,30.2.5,31.8.5h128.7c5.4,0,8.6,3.4,8.6,9.2v50.9c0,4.9-3.4,12-10.8,22.5-5.5,8-13.6,18.2-24,30.3-5.1,6.4-8.1,10-8.8,10.9-3.8,4.9-4,6.4-4,6.5,0,.7,1.9,2.5,9.1,3.7,8.3,1.4,15.5,4.7,21.3,9.8,5.7,5,10,10.6,12.8,16.7,2.2,4.7,3.3,9.3,3.3,13.4v45.3c0,20.8-5.7,38.9-16.9,53.6-13.8,18.2-33.7,27.4-59,27.4Z"/>
</svg>