<?xml version="1.0" encoding="UTF-8"?>
<svg id="Camada_1" xmlns="http://www.w3.org/2000/svg" version="1.1" viewBox="0 0 183.1 301.2">
  <!-- Generator: Adobe Illustrator 29.0.0, SVG Export Plug-In . SVG Version: 2.1.0 Build 186)  -->
  <defs>
    <style>
      .st0 {
        fill: #1d1d1b;
      }
    </style>
  </defs>
  <path class="st0" d="M113.3,300.9c-2.8,0-5.3-.9-7.2-2.6-2-1.8-3.1-4.5-3.1-7.9v-39c0-2.1-.4-3.5-1.2-3.9-.9-.5-2.9-1.1-7.1-1.1H22c-4.4,0-6.9-.6-8.4-2-1.5-1.4-2.2-3.4-2.2-6.2v-42.7c0-4.8.7-8.9,2.2-12.3,4.3-9,14-28.2,28.9-57.1l40.4-78,20.5-39.7c1.7-3.1,4.1-5.3,7.4-6.4,2.8-1,5.8-1.5,8.7-1.5h25.5c4.1,0,6.7,2.3,6.7,5.9s-.4,3.1-1.1,4.6c-26.6,53.7-47.1,94.7-60.9,121.7-9.2,17.9-18,34.5-26,49.3-3.8,6.9-4.4,10-4.4,11.2,0,4.7,1.8,4.7,3,4.7h37.4c3.5,0,3.5-1.2,3.5-2.3v-47.3c0-9.5,5.7-10.6,8.1-10.6h29.9c4,0,6.5.4,8,1.2,2.2,1.2,3.1,3.9,3.1,9.4v44.6c0,3.5,1.2,5.8,6.8,6,10.6.4,12.8,4.7,12.8,8.2v31.1c0,3.4-1.8,9.2-13.5,9.6-7.5.2-7.5,2.7-7.5,3.7v42.7c0,3.6-2.1,5.1-3.3,5.7-1.6.8-4.2,1.2-8.4,1.2h-25.7Z"/>
</svg>