<?xml version="1.0" encoding="UTF-8"?>
<svg id="Camada_1" xmlns="http://www.w3.org/2000/svg" version="1.1" viewBox="0 0 183.1 301.2">
  <!-- Generator: Adobe Illustrator 29.0.0, SVG Export Plug-In . SVG Version: 2.1.0 Build 186)  -->
  <defs>
    <style>
      .st0 {
        fill: #1d1d1b;
      }
    </style>
  </defs>
  <path class="st0" d="M83.4,301.5c-10.5,0-19.6-.6-27.1-1.9-7.8-1.3-14.9-3.9-21.4-7.9-7.7-4.8-13.5-12-17-21.4-3.4-9.1-5.2-19.5-5.2-30.9v-11.6c0-2.3.6-4.4,1.7-6.1,1-1.6,3.1-3.4,7.5-3.4h29.3c5.9,0,9.5,3.2,9.5,8.6s.1,5.2.4,7.3c.2,2,.9,4.2,1.9,6.6,1.6,3.6,3.7,5.8,6.4,6.6,3.2,1,8.3,1.5,15.3,1.5,12.2,0,21.6-3.1,28.1-9.3,6.5-6.1,9.7-16.1,9.7-29.6v-22.9c0-9.9-2.1-18.7-6.3-26.2-5.7-10.1-14.1-15-25.5-15s-10.5,1-15.6,2.9c-4.9,1.9-8.4,4.2-10.4,6.8-1.4,1.9-3.2,3.8-5.5,3.8H20.6c-3.1,0-6.4-1.7-6.4-6.6V12.2c0-5.5.9-8.7,2.9-10.3C18.9.3,22.5-.3,28.9-.3h132.6c2.7,0,8.9,1,8.9,10.6v24.5c0,8.3-6,8.9-7.8,8.9H61c0,.4-.2,1-.2,2v72.8c3.7-3.1,6.7-5.5,8.9-7.1,12.5-8.5,25.7-12.8,39.2-12.8s31.4,6.8,43.1,20.3c11.5,13.3,17.3,30.3,17.3,50.6v44.7c0,30-7.2,52.3-21.5,66.3-14.3,14-35.9,21.1-64.4,21.1Z"/>
</svg>