<?xml version="1.0" encoding="UTF-8"?>
<svg id="Camada_1" xmlns="http://www.w3.org/2000/svg" version="1.1" viewBox="0 0 183.1 301.2">
  <!-- Generator: Adobe Illustrator 29.0.0, SVG Export Plug-In . SVG Version: 2.1.0 Build 186)  -->
  <defs>
    <style>
      .st0 {
        fill: #1d1d1b;
      }
    </style>
  </defs>
  <path class="st0" d="M87.1,300.8c-6.5,0-13.5-1.7-20.7-4.9-11.2-5.1-21.1-13.5-29.5-25.1-4.7-6.3-8.9-14-12.3-22.8-5.4-13.7-8.2-27.9-8.2-42.3v-12.6c0-15.5,1.4-30.8,4.2-45.4,4.1-21.5,11.4-43.1,21.8-64.1C65.4,38.7,77.8,14.4,81.6,7c2.8-5.5,6.5-6.6,9.2-6.6h29.9c5.2,0,8.4,2.7,8.4,7.2s-.3,2.7-1.1,4.4c0,0-44.6,97-44.6,97.1,3.5-.8,7.3-1.5,11.4-2.2,4.6-.7,9.6-1,14.9-1s12.8.8,17.9,2.5c9.6,3.1,17.7,8.9,24,17.3,5.3,7.3,9.3,18.4,12.1,33.9,2.1,11.2,3.1,20.2,3.1,27v24.1c0,3.9-.3,7.7-.9,11.3-2.2,15-7.6,30.1-15.8,44.9-5.7,10.3-13.1,18.6-21.8,24.6-8.9,6.2-17.8,9.3-26.3,9.3h-14.7ZM89.9,152.4c-9.7,0-16.2,1.9-19.5,5.5-1.4,1.7-3.5,5.9-5.7,16.2,0,.4-.4,2.6-1.3,10.8-.9,8-1.1,10.4-1.1,11.1v5.3c0,8.3.7,15.4,2.1,21,1.4,5.5,3.6,10.3,6.6,14.4,2.9,4,6.2,7,9.7,8.9,3.5,1.8,7.4,2.8,11.6,2.8,7.5,0,13.8-3.5,19.2-10.8,5.6-7.5,8.4-16.6,8.4-26.9v-19.5c-.2-4.5-.4-8.2-.5-11.1-.9-8.3-2.8-15.3-5.7-20.6-1.5-2.8-3.8-4.6-7.1-5.5-3.9-1-8.2-1.5-12.9-1.5h-3.9Z"/>
</svg>