<?xml version="1.0" encoding="UTF-8"?>
<svg id="Camada_1" xmlns="http://www.w3.org/2000/svg" version="1.1" viewBox="0 0 183.1 301.2">
  <!-- Generator: Adobe Illustrator 29.0.0, SVG Export Plug-In . SVG Version: 2.1.0 Build 186)  -->
  <defs>
    <style>
      .st0 {
        fill: #1d1d1b;
      }
    </style>
  </defs>
  <path class="st0" d="M58.7,300.5c-1.9,0-8.1-.7-8.1-9.2v-75.5c0-2.9.5-5.2,1.5-7L120,63.8v-9.7h-56.9v20.5c0,.4,0,.7-.2,1.1-.6,1.5-1.1,2.5-1.5,3.3-2,3.1-4.2,4.5-6.6,4.5h-29.9c-2.2,0-4.1-.9-5.8-2.6-1.7-1.7-2.5-3.8-2.5-6.3V9.9C16.5,1.3,22.9.7,24.9.7h133.1c2.6,0,4.8,1,6.5,2.9,1.4,1.7,2.2,3.8,2.2,6.3v71.2c0,2.6-.2,5.4-1.7,6.9l-67.8,144v59.3c0,.4,0,.7-.2,1.1-.6,1.5-1.1,2.5-1.5,3.3-1.2,2.1-3.2,4.9-6.4,4.9h-30.4Z"/>
</svg>