<?xml version="1.0" encoding="UTF-8"?>
<svg id="Camada_1" xmlns="http://www.w3.org/2000/svg" version="1.1" viewBox="0 0 183.1 301.2">
  <!-- Generator: Adobe Illustrator 29.0.0, SVG Export Plug-In . SVG Version: 2.1.0 Build 186)  -->
  <defs>
    <style>
      .st0 {
        fill: #1d1d1b;
      }
    </style>
  </defs>
  <path class="st0" d="M91.3,301.2c-22.4,0-39.8-6.1-51.8-18.1-15.4-15.5-23.3-41.4-23.3-77v-7.6c0-16.5,3.8-31.2,11.2-43.7,0,0,.1-.2.2-.3,8.2-10.6,13.3-17.6,15.4-20.6,1-1.3,1.5-2.2,1.5-3.1s-.1-.8-.4-1.1c-6-7.8-10.3-15.7-13-23.7-2.7-7.9-4-16.7-4-26s.3-10.3.8-16.3c.6-6,1-10,1.4-12,5-22.6,14.4-37.8,28.1-45.3C65.3,2.1,77.1,0,93.5,0s40.2,6.8,50.9,20.3c9.4,11.7,14.2,31.1,14.2,57.6v7.9c0,10.1-2.1,19.3-6.1,27.4,0,.1-.1.2-.2.3-4.2,6.3-8.3,12.5-12.4,18.6.2.7.8,1.7,2.3,3.2,2.3,2.3,4,4.2,5,5.7,6.7,9.2,10.9,15.4,12.7,18.9,4.6,9.2,6.9,20.1,6.9,32.3v32c0,19.7-5.4,36.7-16.1,50.6-13.5,17.5-33.5,26.3-59.5,26.3ZM91.3,155.7c-11.6,0-19.6,6.1-24.5,18.6-3,7.6-4.5,16.6-4.5,26.8v9.2c0,12.8,2.8,23.7,8.4,32.2,5.3,8.2,12.1,12.2,20.6,12.2s17.9-4.7,23.3-14.3c4.2-7.5,6.3-15.7,6.3-24.4v-19.2c0-13.5-2.2-23.5-6.4-29.8-5.1-7.5-12.7-11.2-23.1-11.2ZM91.8,43.9c-6,0-10.5,2.2-13.8,6.6-3.5,4.7-5.3,11.5-5.3,20v12.8c0,8.3,1.1,14.5,3.3,18.4,3,5.6,8.2,8.3,16.1,8.3s11.9-2,15.6-6.2c3.7-4.3,5.6-10.4,5.6-18.2v-17.8c0-3.7-.4-6.9-1.3-9.7-3-9.8-9.4-14.3-20.3-14.3Z"/>
</svg>