<?xml version="1.0" encoding="UTF-8"?>
<svg id="Camada_1" xmlns="http://www.w3.org/2000/svg" version="1.1" viewBox="0 0 183.1 301.2">
  <!-- Generator: Adobe Illustrator 29.0.0, SVG Export Plug-In . SVG Version: 2.1.0 Build 186)  -->
  <defs>
    <style>
      .st0 {
        fill: #1d1d1b;
      }
    </style>
  </defs>
  <path class="st0" d="M42.9,300.4c-1.4,0-6.2-.5-6.2-7.6s.4-3.4,1.1-5.1l10.1-19.4c5.7-10.8,9.6-17.8,11.5-20.7,1.3-2,4.5-7.4,12.5-21.8,6.5-11.7,10.3-18.7,11.4-20.9,11.6-21.1,19.8-36.6,24.3-45.9,7.9-16.1,11.9-30.9,11.9-44.1v-32.1c0-9.3-1.7-16.8-5.1-22.3-4.4-7-11.5-10.4-21.7-10.4s-15,4.1-20.5,12.5c-5.7,8.7-8.5,19-8.5,30.5v8.6c0,16.3,3.1,27.8,9.1,34,4,4,9.5,6,16.8,6h8.6c1.4,0,2.7.5,3.5,1.5,1.6,1.7,1.4,4.1,1.2,5.8-1.1,11.4-5.2,21.2-12,29-6.3,7.2-14.2,10.9-23.4,10.9-15,0-26.9-7.4-35.4-21.8-8.1-13.9-12.3-31.5-12.3-52.2v-14.9c0-32.7,6.6-57.6,19.7-74C52.8,9.3,72,.8,96.5.8s40.5,7.8,51.8,23.1c9.9,13.5,15,32.2,15,55.6v37.4c0,9.1-.6,18.1-1.7,26.8-1.7,13.1-4.5,23.5-8.3,31-11.5,22.9-20.9,41-27.7,53.9-7.6,13.9-13.4,24.6-17.4,32.1l-18,34c-1.2,2.5-4,5.6-10,5.6h-37.4Z"/>
</svg>